<svg xmlns="http://www.w3.org/2000/svg" width="1920" height="1080" viewBox="0 0 1920 1080">
  <rect width="1920" height="1080" fill="#7eb2d0"/>
  <rect y="0" width="1920" height="240" fill="#5f97bb"/>
  <g fill="none" stroke="#d9eef7" stroke-width="4" opacity="0.9">
    <path d="M20 90c30-18 60-18 90 0s60 18 90 0 60-18 90 0 60 18 90 0 60-18 90 0 60 18 90 0 60-18 90 0 60 18 90 0 60-18 90 0 60 18 90 0 60-18 90 0 60 18 90 0 60-18 90 0 60 18 90 0 60-18 90 0 60 18 90 0"/>
    <path d="M0 155c35-20 70-20 105 0s70 20 105 0 70-20 105 0 70 20 105 0 70-20 105 0 70 20 105 0 70-20 105 0 70 20 105 0 70-20 105 0 70 20 105 0 70-20 105 0 70 20 105 0 70-20 105 0 70 20 105 0"/>
  </g>
  <rect x="90" y="230" width="1740" height="690" fill="#cfb087"/>
  <g opacity="0.3">
    <path d="M150 760h1380v110H150z" fill="#8c6541"/>
    <path d="M900 230h100v530H900z" fill="#ad835b"/>
  </g>
  <g>
    <rect x="205" y="305" width="310" height="190" fill="#efe4cf"/>
    <polygon points="180,335 360,235 540,335 520,395 200,395" fill="#b14134"/>
    <rect x="330" y="430" width="48" height="65" fill="#6d482e"/>
    <rect x="252" y="370" width="34" height="28" fill="#bed3dc"/>
    <rect x="430" y="370" width="34" height="28" fill="#bed3dc"/>
  </g>
  <g>
    <rect x="560" y="315" width="235" height="145" fill="#e4d6bf"/>
    <polygon points="535,335 678,255 820,335 805,380 550,380" fill="#862938"/>
    <rect x="655" y="398" width="40" height="62" fill="#6a452f"/>
  </g>
  <g>
    <rect x="1280" y="325" width="260" height="180" fill="#ded2bc"/>
    <polygon points="1255,345 1410,260 1565,345 1548,402 1272,402" fill="#986a2c"/>
    <rect x="1388" y="442" width="42" height="63" fill="#775234"/>
  </g>
  <g>
    <rect x="250" y="80" width="215" height="90" rx="6" fill="#5a3d28"/>
    <polygon points="275,75 357,118 275,158" fill="#f4efe4"/>
    <polygon points="357,75 357,165 438,120" fill="#ece2d0"/>
    <line x1="357" y1="52" x2="357" y2="164" stroke="#422714" stroke-width="4"/>
  </g>
  <g>
    <rect x="550" y="105" width="180" height="80" rx="6" fill="#4c3524"/>
    <polygon points="572,102 640,137 572,172" fill="#f4efe4"/>
    <polygon points="640,102 640,179 707,139" fill="#ece2d0"/>
    <line x1="640" y1="80" x2="640" y2="178" stroke="#422714" stroke-width="4"/>
  </g>
  <g>
    <rect x="250" y="560" width="170" height="78" fill="#87613a"/>
    <polygon points="235,578 435,578 410,545 260,545" fill="#d59a3b"/>
    <line x1="270" y1="578" x2="270" y2="638" stroke="#5b391f" stroke-width="5"/>
    <line x1="400" y1="578" x2="400" y2="638" stroke="#5b391f" stroke-width="5"/>
  </g>
  <g>
    <rect x="1450" y="565" width="18" height="30" fill="#6b4627"/>
    <circle cx="1459" cy="540" r="26" fill="#5b874f"/>
    <circle cx="1439" cy="548" r="18" fill="#4e7b47"/>
    <circle cx="1479" cy="548" r="18" fill="#69995d"/>
  </g>
  <g>
    <rect x="1538" y="525" width="18" height="30" fill="#6b4627"/>
    <circle cx="1547" cy="500" r="24" fill="#67935a"/>
    <circle cx="1528" cy="508" r="17" fill="#4f7d49"/>
    <circle cx="1564" cy="506" r="16" fill="#78a76a"/>
  </g>
  <g opacity="0.35">
    <path d="M120 920l1700 0" stroke="#8b6a46" stroke-width="6"/>
    <path d="M120 830l1700 0" stroke="#b6916a" stroke-width="4"/>
  </g>
</svg>
