<svg xmlns="http://www.w3.org/2000/svg" viewBox="0 0 256 256">
  <defs>
    <linearGradient id="bg" x1="0" y1="0" x2="1" y2="1">
      <stop offset="0" stop-color="#f0e4d6"/>
      <stop offset="1" stop-color="#d8cab9"/>
    </linearGradient>
    <linearGradient id="hood" x1="0" y1="0" x2="1" y2="1">
      <stop offset="0" stop-color="#6b4a3a"/>
      <stop offset="1" stop-color="#412d24"/>
    </linearGradient>
    <linearGradient id="ember" x1="0" y1="0" x2="1" y2="1">
      <stop offset="0" stop-color="#ae612f"/>
      <stop offset="1" stop-color="#7d3f21"/>
    </linearGradient>
    <linearGradient id="coat" x1="0" y1="0" x2="1" y2="1">
      <stop offset="0" stop-color="#3d4448"/>
      <stop offset="1" stop-color="#242a2d"/>
    </linearGradient>
    <linearGradient id="skin" x1="0" y1="0" x2="1" y2="1">
      <stop offset="0" stop-color="#d9b295"/>
      <stop offset="1" stop-color="#bc8b6b"/>
    </linearGradient>
  </defs>
  <rect width="256" height="256" rx="24" fill="url(#bg)"/>
  <g fill="none" stroke="#231b1b" stroke-linecap="round" stroke-linejoin="round">
    <path d="M85 97c11-26 28-40 49-44 20-4 39 0 58 13-18 3-34 9-47 18-16 11-29 25-39 43z" fill="url(#hood)" stroke-width="2.5"/>
    <path d="M74 101c11-21 27-34 48-41 19-6 39-4 60 7-15 3-28 8-40 15-21 11-37 27-49 46z" fill="#7b553e" stroke-width="2.4"/>
    <path d="M197 87c13 10 22 24 26 42-9-7-17-11-25-13-7-2-13-2-19-1" fill="#50362b" stroke-width="2"/>
    <path d="M93 116c4-17 13-31 27-42 14-10 30-15 48-15 20 0 37 7 52 21 14 14 21 31 20 51 0 20-8 37-22 51-15 15-33 22-54 22-21 0-39-8-53-23-14-15-20-34-18-58z" fill="url(#skin)" stroke-width="2.6"/>
    <path d="M114 125c9-8 19-12 30-12 8 0 16 2 23 6" stroke="#352929" stroke-width="2.1"/>
    <path d="M154 116c8 1 16 4 23 9" stroke="#352929" stroke-width="2.1"/>
    <ellipse cx="124" cy="129" rx="4.5" ry="5.2" fill="#201b1c" stroke="none"/>
    <ellipse cx="162" cy="130" rx="4.5" ry="5.2" fill="#201b1c" stroke="none"/>
    <path d="M143 139c1 7 0 15-5 21" stroke="#ab7c63" stroke-width="1.7"/>
    <path d="M118 163c8 4 16 6 25 6 10 0 19-3 28-9" stroke="#6a4331" stroke-width="2"/>
    <path d="M98 149c10 14 24 21 40 21 17 0 31-8 43-22-1 15-7 28-18 39-10 11-24 17-41 17-16 0-31-6-42-18-11-11-17-24-17-37z" fill="#8c644b" stroke-width="2.1"/>
    <path d="M92 190c14 11 31 17 51 17 21 0 39-7 56-23l17 23c-26 23-51 34-76 34-26 0-48-10-67-31z" fill="url(#ember)" stroke-width="2.8"/>
    <path d="M73 206c11 8 24 14 39 18H43c9-18 19-30 30-38z" fill="url(#coat)" stroke-width="2.2"/>
    <path d="M165 197c18 7 33 17 46 27h-70l-11-28c12 1 23 2 35 1z" fill="#2b2f31" stroke-width="2.2"/>
    <path d="M113 181l24 18 18-21 12 50h-34z" fill="#6b4e3d" stroke-width="2.1"/>
    <path d="M112 183l41-21" stroke="#2a2221" stroke-width="4.5"/>
    <path d="M153 173l27-11c8-3 15 1 17 8 3 8-1 15-9 18l-23 9" fill="#5d5247" stroke-width="2.1"/>
    <path d="M170 163l12 10" stroke="#bf945d" stroke-width="2"/>
    <path d="M193 71c8 6 14 14 20 24" stroke="#9f6a37" stroke-width="1.8"/>
    <path d="M203 95c6 10 10 20 12 32" stroke="#9f6a37" stroke-width="1.8"/>
    <circle cx="198" cy="72" r="7" fill="#e49a43" stroke-width="1.5"/>
    <circle cx="214" cy="58" r="4" fill="#ffd082" stroke-width="1.3"/>
  </g>
</svg>
