<svg xmlns="http://www.w3.org/2000/svg" viewBox="0 0 256 256">
  <defs>
    <linearGradient id="bg" x1="0" y1="0" x2="1" y2="1">
      <stop offset="0" stop-color="#ece2d4"/>
      <stop offset="1" stop-color="#d9cfbf"/>
    </linearGradient>
    <linearGradient id="coat" x1="0" y1="0" x2="1" y2="1">
      <stop offset="0" stop-color="#52624d"/>
      <stop offset="1" stop-color="#39463a"/>
    </linearGradient>
    <linearGradient id="leather" x1="0" y1="0" x2="1" y2="1">
      <stop offset="0" stop-color="#6d584a"/>
      <stop offset="1" stop-color="#47392f"/>
    </linearGradient>
    <linearGradient id="skin" x1="0" y1="0" x2="1" y2="1">
      <stop offset="0" stop-color="#e6c4a7"/>
      <stop offset="1" stop-color="#cda17f"/>
    </linearGradient>
  </defs>
  <rect width="256" height="256" rx="24" fill="url(#bg)"/>
  <g fill="none" stroke="#241d1b" stroke-linecap="round" stroke-linejoin="round">
    <path d="M93 76c11-23 27-34 49-35 22 0 39 10 49 29-13-6-27-10-43-10-18 0-36 5-55 16z" fill="#55473f" stroke-width="2.6"/>
    <path d="M180 72c10 9 17 21 20 36-8-6-16-9-24-10-7-2-13-3-18-3" fill="#4b3f39" stroke-width="2.2"/>
    <path d="M84 104c5-18 15-31 29-40 13-8 27-12 42-12 18 0 35 7 48 21 13 13 19 29 18 48-1 18-8 34-22 47-14 13-31 19-51 18-20-2-36-10-48-25-13-15-18-33-16-57z" fill="url(#skin)" stroke-width="2.6"/>
    <path d="M106 113c9-10 21-15 36-15 10 0 19 3 27 8" stroke="#372d2a" stroke-width="2.2"/>
    <path d="M114 112c7-4 14-6 22-6" stroke="#372d2a" stroke-width="1.8"/>
    <path d="M152 104c8 0 16 2 24 7" stroke="#372d2a" stroke-width="1.8"/>
    <ellipse cx="123" cy="119" rx="4.7" ry="5.5" fill="#231e1f" stroke="none"/>
    <ellipse cx="164" cy="121" rx="4.7" ry="5.5" fill="#231e1f" stroke="none"/>
    <path d="M142 130c1 7 0 14-4 20" stroke="#b99175" stroke-width="1.8"/>
    <path d="M118 158c8 5 16 7 25 7 10 0 19-3 28-10" stroke="#7b5341" stroke-width="2"/>
    <path d="M97 146c7 12 16 19 26 22 10 2 19 1 30-3 9-4 17-10 24-18 0 13-4 24-12 34-10 12-23 18-39 18-16 0-29-6-39-17-10-11-15-24-15-38z" fill="#7b5d4b" stroke-width="2.1"/>
    <path d="M81 188c14 12 31 18 49 18 20 0 38-7 55-21l16 22c-13 13-27 22-41 27-11 4-23 6-35 6-24 0-46-10-66-29z" fill="url(#coat)" stroke-width="2.8"/>
    <path d="M67 205c11 8 23 14 37 18H35c7-18 18-31 32-40z" fill="#435144" stroke-width="2.3"/>
    <path d="M164 198c18 7 34 17 48 31h-72l-10-30c11 1 22 1 34-1z" fill="url(#coat)" stroke-width="2.3"/>
    <path d="M106 178l27 16 18-21 12 55h-34z" fill="#625548" stroke-width="2.3"/>
    <path d="M104 188l49-32" stroke="#2d2423" stroke-width="5"/>
    <path d="M154 172l28-11c8-3 15 1 17 8 2 8-1 15-10 18l-24 8" fill="url(#leather)" stroke-width="2.2"/>
    <path d="M171 160l14 10" stroke="#b89263" stroke-width="2"/>
    <path d="M74 182l28-12" stroke="#4d3e35" stroke-width="5"/>
    <path d="M95 71c15-14 31-20 49-20 15 0 29 5 41 13" stroke="#69574d" stroke-width="1.8"/>
    <path d="M186 82c8 8 14 17 18 29" stroke="#5e4d44" stroke-width="1.8"/>
    <path d="M102 145c2 10 7 18 14 24" stroke="#d5ab86" stroke-width="1.5"/>
  </g>
</svg>
