<svg xmlns="http://www.w3.org/2000/svg" width="72" height="72" viewBox="0 0 72 72">
  <rect width="72" height="72" rx="16" fill="#53372d"/>
  <ellipse cx="36" cy="57" rx="20" ry="7" fill="#000" opacity=".18"/>
  <g fill="none" stroke="#181515" stroke-linecap="round" stroke-linejoin="round" stroke-width="1.7">
    <path d="M19 22c5-7 11-10 17-10s12 3 18 10l-4 6H22z" fill="#784d35"/>
    <path d="M21 29c4-4 9-6 15-6 5 0 10 2 14 6v7H21z" fill="#c99b78"/>
    <path d="M16 39c5-5 12-8 20-8 8 0 15 3 20 8l-4 18H20z" fill="#4a4d4d"/>
    <path d="M17 48c7 4 13 5 19 5 7 0 13-1 19-5v10H17z" fill="#2b2a2a"/>
    <path d="M47 21l8-8" stroke="#df9742" stroke-width="2.2"/>
    <circle cx="58" cy="14" r="3" fill="#ffd38c" stroke="none"/>
    <circle cx="29" cy="30" r="1.4" fill="#191617" stroke="none"/>
    <circle cx="41" cy="30" r="1.4" fill="#191617" stroke="none"/>
  </g>
</svg>
