<svg xmlns="http://www.w3.org/2000/svg" width="72" height="72" viewBox="0 0 72 72">
  <rect width="72" height="72" rx="16" fill="#30415a"/>
  <ellipse cx="36" cy="57" rx="20" ry="7" fill="#000" opacity=".18"/>
  <g fill="none" stroke="#181516" stroke-linecap="round" stroke-linejoin="round" stroke-width="1.7">
    <path d="M19 22c5-6 11-9 17-9s12 3 18 9l-5 6H24z" fill="#3f566f"/>
    <path d="M22 29c4-4 9-6 14-6 6 0 11 2 14 6v7H22z" fill="#caa07b"/>
    <path d="M17 39c5-5 12-8 19-8 8 0 15 3 20 8l-4 18H20z" fill="#6f4d45"/>
    <path d="M17 48c7 4 13 5 19 5 7 0 13-1 19-5v10H17z" fill="#283142"/>
    <path d="M26 28c3-2 6-3 10-3s8 1 10 3" stroke="#2d2424" stroke-width="1.3"/>
    <circle cx="30" cy="30" r="1.4" fill="#1b1718" stroke="none"/>
    <circle cx="41" cy="30" r="1.4" fill="#1b1718" stroke="none"/>
    <path d="M36 33c1 3 0 5-2 7" stroke="#8d654e" stroke-width="1.1"/>
  </g>
</svg>
