<svg xmlns="http://www.w3.org/2000/svg" width="72" height="72" viewBox="0 0 72 72">
  <rect width="72" height="72" rx="16" fill="#2f3f35"/>
  <ellipse cx="36" cy="57" rx="20" ry="7" fill="#000" opacity=".18"/>
  <g fill="none" stroke="#1a1717" stroke-linecap="round" stroke-linejoin="round" stroke-width="1.7">
    <path d="M23 18c4-6 9-8 14-8 6 0 11 2 15 8H23z" fill="#473a33"/>
    <path d="M22 26c4-4 9-6 14-6 6 0 11 2 14 6v7H22z" fill="#dfbd9f"/>
    <path d="M16 38c5-5 12-8 20-8 8 0 15 3 20 8l-4 19H20z" fill="#53654f"/>
    <path d="M17 48c7 4 13 5 19 5 7 0 13-1 19-5v10H17z" fill="#6d5d4b"/>
    <path d="M46 35l8-12" stroke="#b99364" stroke-width="2.3"/>
    <path d="M25 28c3-2 7-3 11-3s8 1 11 3" stroke="#322726" stroke-width="1.3"/>
    <circle cx="30" cy="28" r="1.5" fill="#1a1717" stroke="none"/>
    <circle cx="42" cy="28" r="1.5" fill="#1a1717" stroke="none"/>
  </g>
</svg>
