<svg xmlns="http://www.w3.org/2000/svg" width="72" height="72" viewBox="0 0 72 72">
  <rect width="72" height="72" rx="16" fill="#203245"/>
  <ellipse cx="36" cy="56" rx="20" ry="7" fill="#000" opacity=".18"/>
  <g fill="none" stroke="#1a171a" stroke-linecap="round" stroke-linejoin="round" stroke-width="1.8">
    <path d="M26 12c3-2 7-2 10-2 4 1 7 2 10 5 3 3 5 7 5 11H21c0-6 2-10 5-14z" fill="#2f3038"/>
    <path d="M24 26c5-4 9-6 12-6s8 2 12 6v7H24z" fill="#f0d7c0"/>
    <path d="M19 37c5-4 11-7 17-7s12 3 17 7l-4 17H23z" fill="#455565"/>
    <path d="M19 47c7 4 12 5 17 5s10-1 17-5v12H19z" fill="#566171"/>
    <path d="M19 45l8 6-2 8H17z" fill="#7a4f5a"/>
    <path d="M53 45l-8 6 2 8h8z" fill="#7a4f5a"/>
    <path d="M29 36h14" stroke="#ddd0c2" stroke-width="1.3"/>
    <path d="M32 52l-2 10" stroke="#37262c" stroke-width="1.3"/>
    <path d="M40 52l2 10" stroke="#37262c" stroke-width="1.3"/>
    <circle cx="31" cy="28" r="1.4" fill="#1a171a" stroke="none"/>
    <circle cx="41" cy="28" r="1.4" fill="#1a171a" stroke="none"/>
  </g>
</svg>
