<svg xmlns="http://www.w3.org/2000/svg" width="72" height="72" viewBox="0 0 72 72">
  <rect width="72" height="72" rx="16" fill="#1f2f43"/>
  <ellipse cx="36" cy="58" rx="18" ry="6" fill="#000" opacity=".2"/>
  <g fill="none" stroke="#1a171a" stroke-linecap="round" stroke-linejoin="round" stroke-width="1.8">
    <path d="M27 11c3-2 8-2 11-1 5 1 8 3 11 8 2 3 3 6 3 9H23c0-6 1-10 4-13z" fill="#2e3038"/>
    <path d="M24 26c5-4 9-6 12-6 4 0 8 2 12 6v7H24z" fill="#efd4bf"/>
    <path d="M20 39c5-6 11-9 17-9 7 0 13 3 18 9l-5 17H22z" fill="#435463"/>
    <path d="M21 48c6 3 11 5 16 5 6 0 11-2 16-5v11H21z" fill="#536172"/>
    <path d="M18 43l10 6-4 9H15z" fill="#7f4d58"/>
    <path d="M54 43l-7 8 7 7h4z" fill="#7f4d58"/>
    <path d="M27 56h18l5 5-8 3H30l-8-3z" fill="#7a4c57"/>
    <path d="M31 35h13" stroke="#ddd0c2" stroke-width="1.3"/>
    <path d="M31 52l-2 10" stroke="#37262c" stroke-width="1.3"/>
    <path d="M40 52l2 10" stroke="#37262c" stroke-width="1.3"/>
    <path d="M45 37l10-9 4 4-10 10z" fill="#8b5b64"/>
    <path d="M53 29l6-5 3 3-5 6z" fill="#c69d59"/>
    <path d="M44 40l7-6" stroke="#dbc49c" stroke-width="1.3"/>
    <path d="M25 41l-7 8" stroke="#d2b797" stroke-width="2"/>
    <circle cx="31" cy="28" r="1.4" fill="#1a171a" stroke="none"/>
    <circle cx="41" cy="28" r="1.4" fill="#1a171a" stroke="none"/>
    <path d="M32 34c2 1 3 1 4 1 2 0 3 0 5-1" stroke="#94665f" stroke-width="1.2"/>
  </g>
</svg>
